<?xml version="1.0" encoding="utf-8"?>
<!-- Generator: Adobe Illustrator 26.0.0, SVG Export Plug-In . SVG Version: 6.00 Build 0)  -->
<svg version="1.1" id="Layer_1" xmlns="http://www.w3.org/2000/svg" xmlns:xlink="http://www.w3.org/1999/xlink" x="0px" y="0px"
	 viewBox="0 0 48 48" style="enable-background:new 0 0 48 48;" xml:space="preserve">
<style type="text/css">
	.st0{fill:#FFFFFF;}
</style>
<g>
	<path class="st0" d="M32,22c0,0.9,0,1.8,0,2.8c0,1.5-0.5,3-1.3,4.3c-0.9,1.3-2.1,2.3-3.5,2.8c-0.5,0.2-1.1,0.4-1.7,0.6
		c-0.4,0.1-0.8-0.1-0.8-0.6c0-0.8,0-1.5,0-2.3c0-2-0.4-4-1.2-5.9c-0.1-0.3-0.3-0.6-0.3-0.9c-0.1-0.7,0.3-1.3,1-1.6
		c0.9-0.4,1.8-0.8,2.8-1.2c1.4-0.6,2.8-1.2,4.2-1.8c0.4-0.2,0.8,0,0.9,0.4c0,0.1,0,0.2,0,0.2C32,20,32,21,32,22L32,22z"/>
	<path class="st0" d="M16,21.9c0-1,0-2,0-3c0-0.6,0.4-0.8,0.9-0.6c3.7,1.6,6,4.4,6.8,8.3c0.1,0.7,0.2,1.4,0.2,2.1c0,1,0,2,0,3
		c0,0.5-0.4,0.8-0.9,0.6c-0.9-0.3-1.8-0.5-2.7-0.9c-2.5-1.2-4-3.2-4.4-5.9C16,24.9,16,24.3,16,23.6C16,23.1,16,22.5,16,21.9z"/>
	<path class="st0" d="M26.5,17.9c-0.1,0.2-0.1,0.3-0.2,0.4c-0.6,0.6-1.2,1.2-1.8,1.8c-0.3,0.3-0.6,0.3-0.9,0
		c-0.6-0.6-1.2-1.2-1.8-1.8c-0.3-0.3-0.3-0.6,0-0.9c0.6-0.6,1.2-1.2,1.8-1.8c0.3-0.3,0.6-0.3,0.9,0c0.6,0.6,1.2,1.2,1.8,1.8
		C26.4,17.6,26.4,17.8,26.5,17.9z"/>
</g>
</svg>
