<?xml version="1.0" encoding="utf-8"?>
<!-- Generator: Adobe Illustrator 26.0.0, SVG Export Plug-In . SVG Version: 6.00 Build 0)  -->
<svg version="1.1" id="Layer_1" xmlns="http://www.w3.org/2000/svg" xmlns:xlink="http://www.w3.org/1999/xlink" x="0px" y="0px"
	 viewBox="0 0 48 48" style="enable-background:new 0 0 48 48;" xml:space="preserve">
<style type="text/css">
	.st0{fill:#FFFFFF;}
</style>
<g>
	<path class="st0" d="M20.9,34.5c-0.4-0.1-0.8-0.2-1.2-0.3c-1.5-0.6-2.3-1.7-2.5-3.2c-0.2-1.6,0.4-2.9,1.8-3.8
		c0.6-0.4,0.9-0.9,0.9-1.7c-0.1-2.1,1.6-3.9,3.8-4.1c2.2-0.2,4.2,1.3,4.6,3.3c0,0.3,0.1,0.6,0.1,0.9c0,0.6,0.2,1.1,0.8,1.5
		c1,0.7,1.7,1.6,1.9,2.8c0.4,2.1-1.1,4.2-3.3,4.6c-0.1,0-0.3,0.1-0.4,0.1h-0.9c-0.6-0.1-1.2-0.3-1.8-0.5c-0.4-0.1-0.8-0.1-1.2,0.1
		c-0.4,0.1-0.7,0.3-1.1,0.4c-0.2,0-0.3,0.1-0.5,0.1L20.9,34.5z"/>
	<path class="st0" d="M24.6,17.5c0-0.4,0.1-0.7,0.3-1.1c0.4-0.9,1-1.8,1.6-2.6c0.3-0.4,0.8-0.4,1,0c0.7,1,1.3,1.9,1.7,3
		c0.3,0.9,0.1,1.7-0.6,2.3c-0.7,0.6-1.6,0.8-2.5,0.5c-0.9-0.3-1.4-1-1.5-1.9C24.6,17.6,24.6,17.5,24.6,17.5z"/>
	<path class="st0" d="M18.7,17.5c0-0.6,0.2-1,0.4-1.4c0.4-0.8,0.9-1.5,1.4-2.2c0.3-0.4,0.8-0.4,1.1,0c0.6,0.9,1.2,1.8,1.7,2.8
		c0.6,1.3-0.3,2.6-1.5,3c-0.3,0.1-0.6,0.1-1,0.1c-0.3,0-0.6-0.1-0.9-0.3c-0.3-0.2-0.5-0.4-0.7-0.6c-0.2-0.3-0.3-0.5-0.4-0.8
		C18.7,17.8,18.7,17.6,18.7,17.5z"/>
	<path class="st0" d="M16.3,23.8c-1.6,0-2.7-1.6-2.2-2.9c0.3-0.9,0.9-1.7,1.4-2.6c0.1-0.1,0.2-0.3,0.3-0.4c0.3-0.3,0.8-0.3,1,0
		c0.7,0.9,1.3,1.9,1.7,3C19.1,22.3,17.9,23.8,16.3,23.8z"/>
	<path class="st0" d="M31.7,23.8c-1.6,0-2.7-1.5-2.2-2.9c0.3-0.8,0.7-1.5,1.2-2.2c0.2-0.3,0.3-0.5,0.5-0.8c0.3-0.4,0.8-0.4,1,0
		c0.6,0.9,1.2,1.8,1.7,2.8C34.5,22.3,33.2,23.8,31.7,23.8z"/>
</g>
</svg>
