<?xml version="1.0" encoding="utf-8"?>
<!-- Generator: Adobe Illustrator 26.0.0, SVG Export Plug-In . SVG Version: 6.00 Build 0)  -->
<svg version="1.1" id="Layer_1" xmlns="http://www.w3.org/2000/svg" xmlns:xlink="http://www.w3.org/1999/xlink" x="0px" y="0px"
	 viewBox="0 0 48 48" style="enable-background:new 0 0 48 48;" xml:space="preserve">
<style type="text/css">
	.st0{fill:#FFFFFF;}
</style>
<g>
	<path class="st0" d="M15.5,17h17c0.6,0,1,0.4,1,1l0,0c0,0.6-0.4,1-1,1h-17c-0.6,0-1-0.4-1-1l0,0C14.5,17.4,14.9,17,15.5,17z"/>
	<path class="st0" d="M15.5,23h17c0.6,0,1,0.4,1,1l0,0c0,0.6-0.4,1-1,1h-17c-0.6,0-1-0.4-1-1l0,0C14.5,23.4,14.9,23,15.5,23z"/>
	<path class="st0" d="M15.5,29h17c0.6,0,1,0.4,1,1l0,0c0,0.6-0.4,1-1,1h-17c-0.6,0-1-0.4-1-1l0,0C14.5,29.4,14.9,29,15.5,29z"/>
</g>
</svg>
