<?xml version="1.0" encoding="utf-8"?>
<!-- Generator: Adobe Illustrator 26.0.0, SVG Export Plug-In . SVG Version: 6.00 Build 0)  -->
<svg version="1.1" id="Layer_1" xmlns="http://www.w3.org/2000/svg" xmlns:xlink="http://www.w3.org/1999/xlink" x="0px" y="0px"
	 viewBox="0 0 48 48" style="enable-background:new 0 0 48 48;" xml:space="preserve">
<style type="text/css">
	.st0{fill:#FFFFFF;}
</style>
<path class="st0" d="M34.5,24.4c-0.2,0.4-0.5,0.5-0.9,0.5c-0.3,0-0.6,0-0.9,0c-0.7,0-0.9-0.2-0.9-0.9v-2.5c-0.1,0.1-0.2,0.1-0.2,0.2
	c-2.1,2.1-4.3,4.2-6.4,6.3c-0.4,0.4-0.8,0.6-1.4,0.4c-0.2-0.1-0.5-0.2-0.7-0.4c-0.8-0.7-1.5-1.5-2.2-2.2c-0.1-0.1-0.1-0.1-0.2-0.2
	c-0.1,0.1-0.1,0.2-0.1,0.2c-1.7,1.6-3.3,3.3-5,4.9c-0.1,0.1-0.3,0.2-0.5,0.3c-0.2,0-0.3,0-0.5-0.2c-0.4-0.3-0.7-0.6-1-1
	c-0.1-0.1-0.1-0.2-0.2-0.3v-0.3c0.1-0.2,0.3-0.3,0.4-0.5c1.9-1.9,3.9-3.9,5.9-5.8c0.7-0.7,1.4-0.7,2.1,0c0.8,0.8,1.6,1.5,2.3,2.3
	l5.7-5.7c-0.1,0-0.1,0-0.2,0c-0.8,0-1.7,0-2.5,0c-0.5,0-0.7-0.3-0.7-0.7c0-0.4,0-0.8,0-1.2c0-0.4,0.3-0.7,0.7-0.7c2.2,0,4.4,0,6.6,0
	c0.4,0,0.6,0.2,0.7,0.5L34.5,24.4z"/>
</svg>
