<?xml version="1.0" encoding="utf-8"?>
<!-- Generator: Adobe Illustrator 26.0.0, SVG Export Plug-In . SVG Version: 6.00 Build 0)  -->
<svg version="1.1" id="Layer_1" xmlns="http://www.w3.org/2000/svg" xmlns:xlink="http://www.w3.org/1999/xlink" x="0px" y="0px"
	 viewBox="0 0 48 48" style="enable-background:new 0 0 48 48;" xml:space="preserve">
<style type="text/css">
	.st0{fill:#FFFFFF;}
</style>
<path class="st0" d="M19.2,14.4h9.6c0.5,0,1,0.2,1.4,0.6c0.4,0.4,0.6,0.8,0.6,1.4v15.4c0,0.5-0.2,1-0.6,1.4
	c-0.4,0.4-0.8,0.6-1.4,0.6h-9.6c-0.5,0-1-0.2-1.4-0.6c-0.4-0.4-0.6-0.8-0.6-1.4V16.3c0-0.5,0.2-1,0.6-1.4
	C18.2,14.6,18.7,14.4,19.2,14.4z M19.2,16.3v3.8h9.6v-3.8H19.2z M19.2,22.1V24h1.9v-1.9H19.2z M23,22.1V24H25v-1.9H23z M26.9,22.1
	V24h1.9v-1.9H26.9z M19.2,25.9v1.9h1.9v-1.9H19.2z M23,25.9v1.9H25v-1.9H23z M26.9,25.9v1.9h1.9v-1.9H26.9z M19.2,29.8v1.9h1.9v-1.9
	H19.2z M23,29.8v1.9H25v-1.9H23z M26.9,29.8v1.9h1.9v-1.9H26.9z"/>
</svg>
