<?xml version="1.0" encoding="utf-8"?>
<!-- Generator: Adobe Illustrator 26.0.0, SVG Export Plug-In . SVG Version: 6.00 Build 0)  -->
<svg version="1.1" id="Layer_1" xmlns="http://www.w3.org/2000/svg" xmlns:xlink="http://www.w3.org/1999/xlink" x="0px" y="0px"
	 viewBox="0 0 48 48" style="enable-background:new 0 0 48 48;" xml:space="preserve">
<style type="text/css">
	.st0{fill:#FFFFFF;}
</style>
<g>
	<path class="st0" d="M24,35.5l-2.6-2.7c-0.1-0.1-0.3-0.2-0.4-0.1l-3.7,0.6l-0.6-3.7c0-0.2-0.1-0.3-0.3-0.4l-3.4-1.7l1.7-3.3
		c0.1-0.1,0.1-0.3,0-0.5l-1.7-3.3l3.4-1.7c0.1-0.1,0.2-0.2,0.3-0.4l0.6-3.7l3.7,0.6c0.2,0,0.3,0,0.4-0.1l2.6-2.7l2.6,2.7
		c0.1,0.1,0.3,0.2,0.4,0.1l3.7-0.6l0.6,3.7c0,0.2,0.1,0.3,0.3,0.4l3.4,1.7l-1.7,3.3c-0.1,0.1-0.1,0.3,0,0.5l1.7,3.3l-3.4,1.7
		c-0.1,0.1-0.2,0.2-0.3,0.4l-0.6,3.7l-3.7-0.6c-0.2,0-0.3,0-0.4,0.1L24,35.5z M21,31.2c0.5,0,1,0.2,1.4,0.6l1.6,1.6l1.6-1.6
		c0.5-0.5,1.1-0.7,1.8-0.6l2.2,0.4l0.3-2.2c0.1-0.4,0.2-0.7,0.5-1l-0.1-0.1l1.3-0.7l0,0l1.3-0.7l-1-2c-0.3-0.6-0.3-1.3,0-1.8l1-2
		l-2-1c-0.6-0.3-1-0.9-1.1-1.5l-0.3-2.2l-2.2,0.4c-0.4,0.1-0.8,0-1.1-0.1l-0.1,0.1L24,14.6l-1.6,1.6c-0.5,0.5-1.1,0.7-1.8,0.6
		l-2.2-0.4l-0.3,2.2c-0.1,0.6-0.5,1.2-1.1,1.5l-2,1l1,2c0.3,0.6,0.3,1.3,0,1.8l-1,2l1.3,0.7l0,0l1.3,0.7l-0.1,0.1
		c0.3,0.3,0.4,0.6,0.5,1l0.3,2.2l2.2-0.4C20.8,31.2,20.9,31.2,21,31.2z"/>
</g>
</svg>
