<?xml version="1.0" encoding="utf-8"?>
<!-- Generator: Adobe Illustrator 26.0.0, SVG Export Plug-In . SVG Version: 6.00 Build 0)  -->
<svg version="1.1" id="Layer_1" xmlns="http://www.w3.org/2000/svg" xmlns:xlink="http://www.w3.org/1999/xlink" x="0px" y="0px"
	 viewBox="0 0 48 48" style="enable-background:new 0 0 48 48;" xml:space="preserve">
<style type="text/css">
	.st0{fill:#FFFFFF;}
</style>
<g>
	<path class="st0" d="M31,15.5v17c0,0.6-0.4,1-1,1l0,0c-0.6,0-1-0.4-1-1v-17c0-0.6,0.4-1,1-1l0,0C30.6,14.5,31,14.9,31,15.5z"/>
	<path class="st0" d="M25,15.5v17c0,0.6-0.4,1-1,1l0,0c-0.6,0-1-0.4-1-1v-17c0-0.6,0.4-1,1-1l0,0C24.6,14.5,25,14.9,25,15.5z"/>
	<path class="st0" d="M19,15.5v17c0,0.6-0.4,1-1,1l0,0c-0.6,0-1-0.4-1-1v-17c0-0.6,0.4-1,1-1l0,0C18.6,14.5,19,14.9,19,15.5z"/>
</g>
</svg>
