<?xml version="1.0" encoding="utf-8"?>
<!-- Generator: Adobe Illustrator 26.0.0, SVG Export Plug-In . SVG Version: 6.00 Build 0)  -->
<svg version="1.1" id="Layer_1" xmlns="http://www.w3.org/2000/svg" xmlns:xlink="http://www.w3.org/1999/xlink" x="0px" y="0px"
	 viewBox="0 0 48 48" style="enable-background:new 0 0 48 48;" xml:space="preserve">
<style type="text/css">
	.st0{fill:#FFFFFF;}
</style>
<path class="st0" d="M17.5,24v-8.1c0-1.5,1-2.4,2.5-2.4H28c1.5,0,2.5,0.9,2.5,2.4c0,5.4,0,10.8,0,16.2c0,1.1-0.7,2-1.7,2.3
	c-0.2,0.1-0.4,0.1-0.7,0.1c-2.8,0-5.5,0-8.3,0c-1.4,0-2.4-1-2.4-2.3C17.5,29.4,17.5,26.7,17.5,24z M20.5,15h-0.6
	c-0.6,0-0.9,0.3-0.9,0.9v16.2c0,0.6,0.3,0.9,0.9,0.9H28c0.7,0,1-0.3,1-0.9V15.9c0-0.1,0-0.2,0-0.2c0-0.2-0.1-0.3-0.2-0.5
	S28.5,15,28.3,15c-0.3,0-0.5,0-0.8,0c-0.2,0.6-0.4,0.7-1,0.7h-5C20.9,15.8,20.7,15.6,20.5,15z"/>
</svg>
