<?xml version="1.0" encoding="utf-8"?>
<!-- Generator: Adobe Illustrator 26.0.0, SVG Export Plug-In . SVG Version: 6.00 Build 0)  -->
<svg version="1.1" id="Layer_1" xmlns="http://www.w3.org/2000/svg" xmlns:xlink="http://www.w3.org/1999/xlink" x="0px" y="0px"
	 viewBox="0 0 48 48" style="enable-background:new 0 0 48 48;" xml:space="preserve">
<style type="text/css">
	.st0{fill:#FFFFFF;}
</style>
<g>
	<g>
		<path class="st0" d="M17.1,34.4c-0.2,0-0.4-0.1-0.6-0.2c-0.5-0.3-0.6-0.9-0.2-1.4l13.1-18.4c0.3-0.5,0.9-0.6,1.4-0.2
			c0.5,0.3,0.6,0.9,0.2,1.4L17.9,33.9C17.7,34.2,17.4,34.4,17.1,34.4z"/>
	</g>
	<g>
		<path class="st0" d="M18,21.5c-2.2,0-4-1.8-4-4s1.8-4,4-4s4,1.8,4,4S20.2,21.5,18,21.5z M18,15c-1.4,0-2.5,1.1-2.5,2.5
			S16.6,20,18,20s2.5-1.1,2.5-2.5S19.4,15,18,15z"/>
	</g>
	<g>
		<path class="st0" d="M30,34.5c-2.2,0-4-1.8-4-4s1.8-4,4-4s4,1.8,4,4S32.2,34.5,30,34.5z M30,28c-1.4,0-2.5,1.1-2.5,2.5
			S28.6,33,30,33s2.5-1.1,2.5-2.5S31.4,28,30,28z"/>
	</g>
</g>
</svg>
