<?xml version="1.0" encoding="utf-8"?>
<!-- Generator: Adobe Illustrator 26.0.0, SVG Export Plug-In . SVG Version: 6.00 Build 0)  -->
<svg version="1.1" id="Layer_1" xmlns="http://www.w3.org/2000/svg" xmlns:xlink="http://www.w3.org/1999/xlink" x="0px" y="0px"
	 viewBox="0 0 48 48" style="enable-background:new 0 0 48 48;" xml:space="preserve">
<style type="text/css">
	.st0{fill:#FFFFFF;}
</style>
<g>
	<path class="st0" d="M23.2,27.2l-3.5,3.5V15.5h-1.5v15.2l-3.5-3.5c-0.3-0.3-0.8-0.3-1.1,0c-0.3,0.3-0.3,0.8,0,1.1l4.8,4.8
		c0.3,0.3,0.8,0.3,1.1,0l4.8-4.8c0.3-0.3,0.3-0.8,0-1.1S23.5,26.9,23.2,27.2z"/>
	<path class="st0" d="M34.3,19.7L29.5,15c-0.3-0.3-0.8-0.3-1.1,0l-4.8,4.8c-0.3,0.3-0.3,0.8,0,1.1c0.3,0.3,0.8,0.3,1.1,0l3.5-3.5
		v15.2h1.5V17.3l3.5,3.5c0.3,0.3,0.8,0.3,1.1,0C34.6,20.5,34.6,20,34.3,19.7z"/>
</g>
</svg>
