<?xml version="1.0" encoding="utf-8"?>
<!-- Generator: Adobe Illustrator 26.0.0, SVG Export Plug-In . SVG Version: 6.00 Build 0)  -->
<svg version="1.1" id="Layer_1" xmlns="http://www.w3.org/2000/svg" xmlns:xlink="http://www.w3.org/1999/xlink" x="0px" y="0px"
	 viewBox="0 0 48 48" style="enable-background:new 0 0 48 48;" xml:space="preserve">
<style type="text/css">
	.st0{fill:#FFFFFF;}
</style>
<path class="st0" d="M24.6,27.2v1.7H25c0.9,0,1.5,0.6,1.5,1.5c0,0,0,0.1,0,0.1c0.1,0,0.2,0,0.3,0.1c0.3,0.1,0.6,0.3,0.8,0.6
	c0.2,0.3,0.3,0.7,0.2,1c0,0.4-0.2,0.7-0.5,0.9c-0.3,0.2-0.6,0.4-0.9,0.4c-1.7,0-3.3,0-5,0c-0.8,0-1.4-0.6-1.5-1.3
	c-0.1-0.8,0.4-1.5,1.2-1.6c0.1,0,0.1,0,0.2,0c0-0.5,0.1-1,0.5-1.3c0.4-0.3,0.9-0.4,1.4-0.3v-1.6c-0.4-0.1-0.9-0.2-1.3-0.4
	c-1.4-0.5-2.4-1.4-3.1-2.7c-0.1-0.1-0.2-0.2-0.3-0.2c-1.9-0.1-3.4-1.7-3.6-3.5c-0.2-2.1,1.2-3.8,3-4.2c0.1,0,0.2-0.1,0.2-0.2
	c0.1-0.4,0.3-0.8,0.7-1.1c0.3-0.3,0.8-0.4,1.2-0.4c2.6,0,5.2,0,7.7,0c0.9,0,1.7,0.6,1.9,1.5c0,0,0,0.1,0.1,0.1s0.1,0.1,0.1,0.1
	c1.8,0.4,3.1,2,3.1,4c0,1.9-1.4,3.5-3.2,3.8c-0.4,0.1-0.7,0.2-0.9,0.6c-1,1.5-2.4,2.4-4.1,2.7L24.6,27.2z M20.2,15.8
	c-0.5,0-0.8,0.2-0.8,0.8c0,1.6,0,3.1,0,4.7c0,0.2,0,0.4,0,0.6c0.3,2.5,2.7,4.4,5.2,4c2.2-0.4,3.8-2.3,3.8-4.6c0-1.6,0-3.2,0-4.8
	c0-0.5-0.3-0.8-0.7-0.8H20.2z M29.7,22.6c1,0,2-1.2,2-2.4c0-1.2-0.9-2.5-1.9-2.6C29.7,19.2,29.9,20.9,29.7,22.6z M18.3,22.6
	c-0.2-1.7,0-3.4-0.1-5c-1,0.1-1.9,1.3-1.9,2.5C16.3,21.3,17.2,22.5,18.3,22.6z M24,32.2c0.8,0,1.6,0,2.4,0c0.1,0,0.2,0,0.2-0.2
	c0-0.1-0.1-0.2-0.2-0.2h-4.7c0,0-0.1,0-0.1,0c0,0-0.1,0.1-0.1,0.1c0,0.1,0.1,0.1,0.1,0.2c0,0,0.1,0,0.2,0L24,32.2z M24,30.6
	c0.4,0,0.7,0,1.1,0c0.1,0,0.2-0.1,0.2-0.2c0-0.1-0.1-0.2-0.2-0.2c-0.7,0-1.4,0-2.1,0c-0.1,0-0.2,0-0.2,0.2c0,0.1,0.1,0.2,0.2,0.2
	C23.3,30.6,23.6,30.6,24,30.6L24,30.6z"/>
</svg>
