<?xml version="1.0" encoding="utf-8"?>
<!-- Generator: Adobe Illustrator 26.0.0, SVG Export Plug-In . SVG Version: 6.00 Build 0)  -->
<svg version="1.1" id="Layer_1" xmlns="http://www.w3.org/2000/svg" xmlns:xlink="http://www.w3.org/1999/xlink" x="0px" y="0px"
	 viewBox="0 0 48 48" style="enable-background:new 0 0 48 48;" xml:space="preserve">
<style type="text/css">
	.st0{fill:#FFFFFF;}
</style>
<g>
	<path class="st0" d="M20.7,18.3c-0.8-1.4-0.2-2.8,0.5-3.3c0.8-0.6,2.1-0.7,3.1,0.5c0.5-0.6,1-0.9,1.7-0.9c0.5,0,1,0.2,1.4,0.5
		c0.9,0.8,1,1.9,0.4,3.3h4c0.9,0,1.4,0.6,1.4,1.5c0,0.6,0,1.1,0,1.7c0,0.9-0.6,1.5-1.4,1.5c-5.1,0-10.1,0-15.2,0
		c-0.8,0-1.4-0.6-1.4-1.5c0-0.6,0-1.2,0-1.7c0-0.9,0.6-1.5,1.4-1.5c1.3,0,2.5,0,3.8,0L20.7,18.3z M23.8,18.3c0-0.5,0-1,0-1.5
		c0-0.4-0.2-0.7-0.4-1s-0.6-0.4-0.9-0.4c-0.3,0-0.7,0.1-0.9,0.4c-0.2,0.3-0.4,0.6-0.4,1c0,0.7,0.5,1.4,1.2,1.5
		C22.8,18.3,23.3,18.3,23.8,18.3z M24.7,18.3c0.5,0,0.9,0,1.4,0c0.7,0,1.2-0.7,1.2-1.4c0-0.4-0.1-0.7-0.3-1
		c-0.2-0.3-0.5-0.4-0.8-0.5c-0.7-0.1-1.3,0.4-1.4,1.2C24.6,17.2,24.7,17.7,24.7,18.3L24.7,18.3z"/>
	<path class="st0" d="M22,33.5h-0.2c-1.4,0-2.8,0-4.2,0c-0.8,0-1.5-0.7-1.4-1.6c0-2.6,0-5.1,0-7.7V24H22V33.5z"/>
	<path class="st0" d="M26.4,24h5.9c0,0,0,0.1,0,0.2c0,2.6,0,5.3,0,7.9c0,0.7-0.4,1.2-1,1.4c-0.1,0-0.2,0-0.3,0c-1.5,0-2.9,0-4.4,0
		c0,0-0.1,0-0.2,0L26.4,24z"/>
	<path class="st0" d="M22.9,24h2.6v9.5h-2.6V24z"/>
</g>
</svg>
